<svg width="21" height="21" viewBox="0 0 21 21" fill="none" xmlns="http://www.w3.org/2000/svg">
<path d="M13.2835 15.889C14.2386 15.7077 15.2107 15.3693 16.0027 14.6897C17.0466 13.794 17.6969 12.3783 17.6976 10.2079C17.7129 9.11265 17.3505 8.04863 16.677 7.20147C16.8285 6.66189 16.9876 5.60358 16.4766 4.27864L16.3913 4.05744L16.166 3.9835L16.0101 4.45856C16.166 3.9835 16.1655 3.98334 16.165 3.98318L16.164 3.98285L16.1619 3.98218L16.1575 3.98079L16.1476 3.97782C16.1444 3.97688 16.141 3.97591 16.1374 3.97491C16.1331 3.97373 16.1285 3.97252 16.1237 3.97129C16.1059 3.96673 16.0845 3.96188 16.0593 3.95722C16.009 3.9479 15.9442 3.93946 15.8646 3.93574C15.7051 3.92828 15.4891 3.93994 15.2138 3.99951C14.6987 4.111 13.9801 4.38928 13.0336 5.01981C11.3678 4.59358 9.6251 4.59359 7.95929 5.01985C7.01189 4.38921 6.29241 4.11094 5.77671 3.99948C5.50115 3.93993 5.2849 3.92829 5.12529 3.93574C5.04565 3.93945 4.98082 3.94789 4.93046 3.95719C4.90531 3.96184 4.88387 3.96669 4.86609 3.97123C4.8572 3.9735 4.84924 3.97569 4.8422 3.97775L4.83233 3.98071L4.82791 3.9821L4.82583 3.98276L4.82482 3.98309C4.82433 3.98325 4.82384 3.98341 4.9795 4.45856L4.82384 3.98341L4.59784 4.05745L4.51267 4.27949C4.00419 5.6051 4.1622 6.66283 4.31413 7.20236C3.64301 8.04889 3.28143 9.11075 3.29542 10.204C3.29608 12.3701 3.94511 13.7862 4.9863 14.6844C5.77755 15.367 6.74911 15.7089 7.70422 15.8928C7.6044 16.103 7.52366 16.3403 7.46754 16.6033C7.21391 16.6939 6.88824 16.7685 6.55697 16.7384C6.14831 16.7013 5.68062 16.503 5.29435 15.8256L5.29387 15.8247L5.28588 15.8104C5.2794 15.7991 5.2706 15.7839 5.25949 15.7656C5.2373 15.729 5.20568 15.6792 5.16466 15.6204C5.08309 15.5036 4.96177 15.3474 4.80044 15.1876C4.48171 14.8718 3.97352 14.5101 3.28394 14.46L3.2689 14.459L3.25382 14.4588L3.24772 14.9587C3.25382 14.4588 3.25366 14.4588 3.25349 14.4588L3.25314 14.4588L3.25237 14.4588L3.25052 14.4587L3.24567 14.4587L3.23155 14.4588C3.22028 14.4589 3.20523 14.4592 3.18721 14.4598C3.15164 14.4611 3.10218 14.464 3.04596 14.4704C2.95351 14.481 2.76604 14.5083 2.60201 14.6044C2.51394 14.656 2.39008 14.7522 2.31988 14.9179C2.24388 15.0973 2.26457 15.2768 2.323 15.4192C2.4206 15.6572 2.64604 15.8521 2.88977 16.0227L2.92384 16.0465L2.9541 16.0609C2.95486 16.0613 2.95582 16.0619 2.95696 16.0625C2.96481 16.0671 2.98146 16.0771 3.00529 16.0937C3.05284 16.1269 3.1294 16.1867 3.22199 16.2818C3.405 16.4697 3.65774 16.8033 3.87113 17.359C3.8737 17.3664 3.87698 17.3756 3.88104 17.3863C3.88931 17.4083 3.90082 17.4372 3.91603 17.4717C3.9464 17.5407 3.99188 17.6331 4.05641 17.739C4.18527 17.9507 4.39265 18.2207 4.71052 18.4649C5.27745 18.9005 6.13498 19.2085 7.38293 19.0538C7.38492 19.346 7.38727 19.6145 7.38926 19.8418C7.39172 20.1229 7.39363 20.3411 7.39363 20.4637C7.39363 20.4765 7.39155 20.4879 7.38895 20.4961C7.37649 20.4984 7.34822 20.5014 7.29964 20.4946C5.06646 19.7199 3.16897 18.1591 1.94566 16.0847C0.715298 13.9983 0.248217 11.5297 0.629504 9.12084C1.01078 6.71211 2.21492 4.52348 4.02342 2.94507C5.83156 1.36698 8.12611 0.501333 10.4965 0.5C10.4966 0.5 10.4967 0.5 10.4968 0.5L10.4999 0.5L13.2835 15.889ZM13.2835 15.889C13.4887 16.3187 13.6151 16.8617 13.6151 17.5098C13.6151 18.2314 13.612 18.8823 13.609 19.3969C13.6079 19.5717 13.6069 19.7303 13.606 19.8705C13.6042 20.1444 13.6029 20.3477 13.6029 20.4637C13.6029 20.4778 13.6048 20.4899 13.6072 20.4988C13.622 20.5008 13.6512 20.5024 13.6985 20.4953C15.9327 19.7206 17.8311 18.1594 19.0548 16.084C20.2851 13.9972 20.7519 11.5282 20.3702 9.11916C19.9885 6.7102 18.7838 4.52156 16.9747 2.94342C15.1659 1.36557 12.8708 0.500488 10.5 0.5L13.2835 15.889Z" fill="#FFC612" stroke="black"/>
</svg>
