<svg width="22" height="22" viewBox="0 0 22 22" fill="none" xmlns="http://www.w3.org/2000/svg">
<path d="M0.5 11C0.5 5.20316 5.20149 0.5 11 0.5C16.7985 0.5 21.5 5.20316 21.5 11C21.5 16.8003 16.7986 21.5 11 21.5C5.20138 21.5 0.5 16.8003 0.5 11ZM13.3629 6.74194C13.3629 5.43694 12.305 4.37903 11 4.37903C9.695 4.37903 8.6371 5.43694 8.6371 6.74194C8.6371 7.93168 9.5164 8.91606 10.6606 9.08064H9.04839C8.4783 9.08064 8.01613 9.54282 8.01613 10.1129V11.1774C8.01613 11.7475 8.4783 12.2097 9.04839 12.2097H9.08064V14.0484H9.04839C8.4783 14.0484 8.01613 14.5106 8.01613 15.0806V16.1452C8.01613 16.7152 8.4783 17.1774 9.04839 17.1774H12.9516C13.5217 17.1774 13.9839 16.7152 13.9839 16.1452V15.0806C13.9839 14.5106 13.5217 14.0484 12.9516 14.0484H12.9194V10.1129C12.9194 9.54282 12.4572 9.08064 11.8871 9.08064H11.3394C12.4836 8.91606 13.3629 7.93168 13.3629 6.74194Z" fill="#FFC612" stroke="black"/>
</svg>
