<svg width="20" height="20" viewBox="0 0 20 20" fill="none" xmlns="http://www.w3.org/2000/svg">
<path d="M15 18H15.5V17.5V13.125C15.5 13.0918 15.5132 13.0601 15.5366 13.0366C15.5601 13.0132 15.5918 13 15.625 13H16.875C16.9082 13 16.9399 13.0132 16.9634 13.0366C16.9868 13.0601 17 13.0918 17 13.125V18.125C17 18.4897 16.8551 18.8394 16.5973 19.0973C16.3394 19.3551 15.9897 19.5 15.625 19.5H1.875C1.51033 19.5 1.16059 19.3551 0.902728 19.0973C0.644866 18.8394 0.5 18.4897 0.5 18.125V4.375C0.5 4.01033 0.644866 3.66059 0.902728 3.40273C1.16059 3.14487 1.51033 3 1.875 3H8.125C8.15815 3 8.18995 3.01317 8.21339 3.03661C8.23683 3.06005 8.25 3.09185 8.25 3.125V4.375C8.25 4.40815 8.23683 4.43995 8.21339 4.46339C8.18995 4.48683 8.15815 4.5 8.125 4.5H2.5H2V5V17.5V18H2.5H15ZM15.1476 3.35088L15.5013 2.99733L15.1477 2.64371L13.7525 1.24848C13.7523 1.24836 13.7522 1.24824 13.7521 1.24812C13.4777 0.972425 13.675 0.5 14.0625 0.5H19.0625C19.1785 0.5 19.2898 0.546093 19.3719 0.628141C19.4539 0.710188 19.5 0.821468 19.5 0.9375V5.9375C19.5 6.32629 19.0269 6.52293 18.752 6.24801L18.7518 6.24781L17.3565 4.85406L17.0029 4.50085L16.6495 4.85431L7.1335 14.3731L7.13294 14.3736C7.0923 14.4144 7.044 14.4468 6.99082 14.4689C6.93764 14.4909 6.88063 14.5023 6.82305 14.5023C6.76547 14.5023 6.70845 14.4909 6.65527 14.4689C6.60209 14.4468 6.5538 14.4144 6.51315 14.3736L6.51223 14.3727L5.62668 13.4887L5.62638 13.4884C5.58559 13.4478 5.55323 13.3995 5.53115 13.3463C5.50906 13.2931 5.4977 13.2361 5.4977 13.1785C5.4977 13.1209 5.50906 13.0639 5.53115 13.0107C5.55323 12.9576 5.58559 12.9093 5.62638 12.8686L5.62693 12.8681L15.1476 3.35088Z" fill="#FFC612" stroke="black"/>
</svg>
