<svg width="24" height="21" viewBox="0 0 24 21" fill="none" xmlns="http://www.w3.org/2000/svg">
<path d="M15.3406 15.889C16.2958 15.7077 17.2678 15.3693 18.0598 14.6897C19.1037 13.794 19.754 12.3783 19.7548 10.2079C19.77 9.11265 19.4076 8.04863 18.7341 7.20147C18.8856 6.66189 19.0447 5.60358 18.5337 4.27864L18.4484 4.05744L18.2231 3.9835L18.0672 4.45856C18.2231 3.9835 18.2226 3.98334 18.2221 3.98318L18.2211 3.98285L18.2191 3.98218L18.2146 3.98079L18.2048 3.97782C18.2015 3.97688 18.1981 3.97591 18.1945 3.97491C18.1902 3.97373 18.1857 3.97252 18.1808 3.97129C18.1631 3.96673 18.1416 3.96188 18.1165 3.95722C18.0661 3.9479 18.0013 3.93946 17.9217 3.93574C17.7622 3.92828 17.5462 3.93994 17.2709 3.99951C16.7558 4.111 16.0372 4.38928 15.0908 5.01981C13.425 4.59358 11.6822 4.59359 10.0164 5.01985C9.06902 4.38921 8.34954 4.11094 7.83384 3.99948C7.55828 3.93993 7.34203 3.92829 7.18241 3.93574C7.10278 3.93945 7.03794 3.94789 6.98759 3.95719C6.96244 3.96184 6.941 3.96669 6.92322 3.97123C6.91433 3.9735 6.90637 3.97569 6.89932 3.97775L6.88945 3.98071L6.88504 3.9821L6.88296 3.98276L6.88195 3.98309C6.88146 3.98325 6.88097 3.98341 7.03663 4.45856L6.88097 3.98341L6.65497 4.05745L6.5698 4.27949C6.06132 5.6051 6.21933 6.66283 6.37126 7.20236C5.70014 8.04889 5.33856 9.11075 5.35255 10.204C5.35321 12.3701 6.00224 13.7862 7.04343 14.6844C7.83468 15.367 8.80624 15.7089 9.76135 15.8928C9.66153 16.103 9.58079 16.3403 9.52467 16.6033C9.27104 16.6939 8.94537 16.7685 8.61409 16.7384C8.20544 16.7013 7.73774 16.503 7.35148 15.8256L7.351 15.8247L7.34301 15.8104C7.33653 15.7991 7.32773 15.7839 7.31662 15.7656C7.29443 15.729 7.2628 15.6792 7.22178 15.6204C7.14022 15.5036 7.0189 15.3474 6.85757 15.1876C6.53883 14.8718 6.03065 14.5101 5.34107 14.46L5.32603 14.459L5.31095 14.4588L5.30485 14.9587C5.31095 14.4588 5.31078 14.4588 5.31062 14.4588L5.31027 14.4588L5.3095 14.4588L5.30765 14.4587L5.3028 14.4587L5.28867 14.4588C5.27741 14.4589 5.26236 14.4592 5.24434 14.4598C5.20877 14.4611 5.15931 14.464 5.10309 14.4704C5.01064 14.481 4.82317 14.5083 4.65914 14.6044C4.57107 14.656 4.44721 14.7522 4.377 14.9179C4.30101 15.0973 4.3217 15.2768 4.38013 15.4192C4.47773 15.6572 4.70317 15.8521 4.9469 16.0227L4.98097 16.0465L5.01122 16.0609C5.01199 16.0613 5.01294 16.0619 5.01408 16.0625C5.02194 16.0671 5.03859 16.0771 5.06242 16.0937C5.10997 16.1269 5.18653 16.1867 5.27911 16.2818C5.46212 16.4697 5.71486 16.8033 5.92825 17.359C5.93083 17.3664 5.93411 17.3756 5.93817 17.3863C5.94644 17.4083 5.95794 17.4372 5.97316 17.4717C6.00353 17.5407 6.04901 17.6331 6.11354 17.739C6.2424 17.9507 6.44978 18.2207 6.76765 18.4649C7.33458 18.9005 8.19211 19.2085 9.44006 19.0538C9.44205 19.346 9.4444 19.6145 9.44639 19.8418C9.44885 20.1229 9.45076 20.3411 9.45076 20.4637C9.45076 20.4765 9.44868 20.4879 9.44608 20.4961C9.43362 20.4984 9.40535 20.5014 9.35677 20.4946C7.12359 19.7199 5.22609 18.1591 4.00279 16.0847C2.77243 13.9983 2.30535 11.5297 2.68663 9.12084C3.06791 6.7121 4.27205 4.52348 6.08055 2.94507C7.88869 1.36698 10.1832 0.501333 12.5537 0.5C12.5537 0.5 12.5538 0.5 12.5539 0.5L12.557 0.5L15.3406 15.889ZM15.3406 15.889C15.5458 16.3187 15.6722 16.8617 15.6722 17.5098C15.6722 18.2314 15.6691 18.8823 15.6661 19.3969C15.6651 19.5717 15.664 19.7303 15.6631 19.8705C15.6613 20.1444 15.66 20.3477 15.66 20.4637C15.66 20.4778 15.6619 20.4899 15.6643 20.4988C15.6792 20.5008 15.7084 20.5024 15.7556 20.4953C17.9899 19.7206 19.8883 18.1594 21.1119 16.084C22.3422 13.9972 22.8091 11.5282 22.4274 9.11916C22.0457 6.7102 20.8409 4.52156 19.0318 2.94342C17.223 1.36557 14.9279 0.500488 12.5571 0.5L15.3406 15.889Z" fill="#DFDACC" stroke="black"/>
<path d="M22.7397 2.96783L1.66187 18.8245" stroke="black" stroke-width="3"/>
</svg>
