<svg xmlns="http://www.w3.org/2000/svg" xmlns:xlink="http://www.w3.org/1999/xlink" width="500" zoomAndPan="magnify" viewBox="0 0 375 374.999991" height="500" preserveAspectRatio="xMidYMid meet" version="1.0"><defs><clipPath id="b71e1d31ba"><path d="M 23.726562 1 L 351.476562 1 L 351.476562 374 L 23.726562 374 Z M 23.726562 1 " clip-rule="nonzero"/></clipPath></defs><g clip-path="url(#b71e1d31ba)"><path fill="#e44d26" d="M 53.480469 336.445312 L 23.632812 1.996094 L 351.566406 1.996094 L 321.699219 336.398438 L 187.390625 373.578125 Z M 53.480469 336.445312 " fill-opacity="1" fill-rule="nonzero"/></g><path fill="#f16529" d="M 296.117188 315.101562 L 321.652344 29.34375 L 187.601562 29.34375 L 187.601562 345.164062 Z M 296.117188 315.101562 " fill-opacity="1" fill-rule="nonzero"/><path fill="#ebebeb" d="M 187.460938 70.359375 L 84.648438 70.359375 L 95.726562 194.402344 L 187.601562 194.402344 L 187.601562 153.386719 L 133.277344 153.386719 L 129.523438 111.386719 L 187.601562 111.386719 L 187.601562 70.359375 Z M 187.601562 259.777344 L 187.425781 259.824219 L 141.703125 247.492188 L 138.796875 214.78125 L 97.5625 214.78125 L 103.316406 279.183594 L 187.414062 302.40625 L 187.601562 302.351562 Z M 187.601562 259.777344 " fill-opacity="1" fill-rule="nonzero"/><path fill="#ffffff" d="M 187.460938 194.402344 L 238.019531 194.402344 L 233.367188 247.585938 L 187.578125 259.929688 L 187.578125 302.605469 L 271.746094 279.300781 L 283.019531 153.363281 L 187.601562 153.363281 Z M 289.320312 81.367188 L 290.296875 70.359375 L 187.4375 70.359375 L 187.4375 111.375 L 286.597656 111.375 L 287.414062 102.152344 Z M 289.320312 81.367188 " fill-opacity="1" fill-rule="nonzero"/></svg>