<svg width="500" height="500" viewBox="0 0 500 500" fill="none" xmlns="http://www.w3.org/2000/svg">
    <g clip-path="url(#clip0_262_2)">
    <path d="M382.812 0H117.188C52.4666 0 0 52.4666 0 117.188V382.812C0 447.533 52.4666 500 117.188 500H382.812C447.533 500 500 447.533 500 382.812V117.188C500 52.4666 447.533 0 382.812 0Z" fill="#007ACC"/>
    <path d="M110.568 251.658L110.41 272.135H175.488V457.055H221.523V272.135H286.602V252.055C286.602 240.943 286.365 231.658 286.047 231.42C285.809 231.104 246.205 230.943 198.189 231.023L110.809 231.262L110.568 251.658ZM403.451 230.68C416.148 233.856 425.832 239.49 434.721 248.695C439.324 253.617 446.148 262.586 446.705 264.729C446.863 265.363 425.117 279.967 411.943 288.141C411.467 288.459 409.561 286.395 407.418 283.221C400.99 273.856 394.244 269.807 383.926 269.094C368.768 268.061 359.006 275.998 359.086 289.252C359.086 293.141 359.641 295.441 361.229 298.617C364.561 305.522 370.752 309.648 390.197 318.061C425.99 333.459 441.307 343.617 450.832 358.061C461.467 374.172 463.848 399.887 456.625 419.014C448.689 439.807 429.006 453.934 401.307 458.617C392.736 460.125 372.418 459.887 363.213 458.221C343.133 454.648 324.086 444.729 312.34 431.713C307.736 426.633 298.768 413.379 299.324 412.426C299.561 412.109 301.625 410.84 303.926 409.49C306.148 408.221 314.563 403.379 322.498 398.775L336.863 390.441L339.879 394.887C344.086 401.314 353.291 410.125 358.848 413.061C374.799 421.475 396.705 420.283 407.498 410.602C412.102 406.395 414.006 402.029 414.006 395.602C414.006 389.807 413.291 387.268 410.275 382.902C406.387 377.348 398.451 372.664 375.91 362.902C350.117 351.791 339.006 344.887 328.848 333.934C322.975 327.586 317.418 317.426 315.117 308.934C313.213 301.871 312.736 284.172 314.244 277.029C319.561 252.109 338.371 234.729 365.514 229.568C374.324 227.902 394.799 228.537 403.451 230.68Z" fill="white"/>
    </g>
    <defs>
    <clipPath id="clip0_262_2">
    <rect width="500" height="500" fill="white"/>
    </clipPath>
    </defs>
    </svg>    