<svg width="500" height="500" viewBox="0 0 500 500" fill="none" xmlns="http://www.w3.org/2000/svg">
    <path d="M440.512 118.492L268.258 18.4727C257.395 12.2852 243.25 12.2852 232.301 18.4727L58.207 118.492C46.9961 124.941 39.0625 137.062 39.0625 150.027V349.801C39.0625 362.766 47.2031 374.891 58.4141 381.375L104.41 407.5C126.395 418.328 134.164 418.328 144.168 418.328C176.719 418.328 195.312 398.645 195.312 364.312V167.086C195.312 164.301 193.863 160.156 191.129 160.156H169.164C166.383 160.156 160.156 164.301 160.156 167.082V364.309C160.156 379.527 146.391 394.672 120.664 381.809L73.1367 354.414C71.4805 353.516 70.3125 351.707 70.3125 349.801V150.027C70.3125 148.145 72.4805 146.254 74.1484 145.289L247.68 45.4414C249.301 44.5234 251.684 44.5234 253.301 45.4414L424.715 145.266C426.355 146.254 425.777 148.086 425.777 150.027V349.801C425.777 351.707 426.492 353.562 424.871 354.48L252.66 454.387C251.184 455.273 249.352 455.273 247.734 454.387L203.566 428.023C202.234 427.25 200.652 426.973 199.375 427.687C187.086 434.652 184.82 435.578 173.293 439.574C170.457 440.562 166.273 442.277 174.895 447.109L232.699 481.305C238.218 484.492 244.478 486.171 250.852 486.172C257.266 486.172 263.547 484.508 269.082 481.305L440.508 381.375C451.719 374.844 457.031 362.766 457.031 349.801V150.027C457.031 137.062 451.719 124.973 440.512 118.492ZM304.336 318.145C258.531 318.145 248.441 305.508 245.078 282.73C244.688 280.277 242.605 277.344 240.109 277.344H217.723C214.953 277.344 212.727 280.703 212.727 283.461C212.727 312.625 228.582 347.961 304.34 347.961C359.18 347.961 390.621 326.652 390.621 288.941C390.621 251.551 365.359 241.738 312.176 234.699C258.418 227.594 252.957 224.004 252.957 211.41C252.957 201.027 257.582 187.18 297.387 187.18C332.953 187.18 346.062 194.812 351.457 218.785C351.918 221.039 353.977 222.656 356.301 222.656H378.777C380.16 222.656 381.48 222.098 382.449 221.109C383.387 220.047 383.883 218.715 383.758 217.285C380.277 176.004 352.852 156.766 297.383 156.766C248.043 156.766 218.609 177.602 218.609 212.527C218.609 250.41 247.895 260.879 295.258 265.562C351.918 271.117 356.324 279.398 356.324 290.543C356.324 309.898 340.785 318.145 304.336 318.145Z" fill="#83CD29"/>
</svg>
    