<svg xmlns="http://www.w3.org/2000/svg" xmlns:xlink="http://www.w3.org/1999/xlink" width="500" zoomAndPan="magnify" viewBox="0 0 375 374.999991" height="500" preserveAspectRatio="xMidYMid meet" version="1.0"><rect x="-37.5" width="450" fill="#ffd600" y="-37.499999" height="449.999989" fill-opacity="1"/><path fill="#000001" d="M 245.1875 280.699219 C 252.394531 292.40625 260.230469 303.625 276.824219 303.625 C 290.761719 303.625 298.074219 296.699219 298.074219 287.113281 C 298.074219 275.644531 290.511719 271.574219 275.175781 264.894531 L 266.769531 261.3125 C 242.511719 251.019531 226.375 238.125 226.375 210.886719 C 226.375 185.78125 245.59375 166.675781 275.625 166.675781 C 297.011719 166.675781 312.375 174.082031 323.457031 193.480469 L 297.269531 210.21875 C 291.511719 199.925781 285.28125 195.875 275.625 195.875 C 265.769531 195.875 259.53125 202.09375 259.53125 210.21875 C 259.53125 220.261719 265.78125 224.324219 280.207031 230.542969 L 288.613281 234.125 C 317.207031 246.300781 333.332031 258.738281 333.332031 286.699219 C 333.332031 316.824219 309.542969 333.332031 277.605469 333.332031 C 246.363281 333.332031 228.625 317.65625 218.75 298.25 Z M 124.5 281.550781 C 129.769531 290.988281 137.78125 298.25 149.300781 298.25 C 160.324219 298.25 166.667969 293.894531 166.667969 276.96875 L 166.667969 166.667969 L 201.386719 166.667969 L 201.386719 282.300781 C 201.386719 317.375 181.042969 333.332031 151.332031 333.332031 C 124.488281 333.332031 105.113281 315.144531 97.21875 298.25 Z M 124.5 281.550781 " fill-opacity="1" fill-rule="nonzero"/></svg>