<svg xmlns="http://www.w3.org/2000/svg" xmlns:xlink="http://www.w3.org/1999/xlink" width="500" zoomAndPan="magnify" viewBox="0 0 375 374.999991" height="500" preserveAspectRatio="xMidYMid meet" version="1.0"><path fill="#6c4eb0" d="M 127.363281 60.410156 C 141.140625 42.992188 167.089844 34.390625 184.777344 33.945312 C 234.378906 32.992188 255.054688 95.480469 256.648438 120.320312 L 279.609375 127.28125 C 274.320312 51.132812 227.496094 11.1875 182.695312 11.1875 C 140.679688 11.171875 101.886719 42.054688 86.253906 87.335938 C 64.902344 147.707031 78.910156 205.746094 105.089844 252.191406 C 102.808594 255.214844 101.429688 260.535156 101.886719 265.640625 C 102.332031 279.578125 114.042969 291.1875 128.066406 291.1875 L 128.988281 291.1875 C 143.683594 290.726562 154.9375 278.429688 154.246094 263.785156 C 154.246094 249.847656 142.304688 238.269531 128.296875 238.269531 L 127.363281 238.269531 C 126.441406 238.269531 125.078125 238.269531 123.914062 238.714844 C 104.859375 206.207031 96.8125 171.367188 99.820312 133.785156 C 101.640625 105.445312 110.839844 80.835938 127.363281 60.410156 Z M 127.363281 60.410156 " fill-opacity="1" fill-rule="nonzero"/><path fill="#6c4eb0" d="M 16.699219 323.957031 C 32.085938 347.171875 63.554688 362.015625 97.996094 362.015625 C 107.175781 362.015625 116.832031 361.339844 126.242188 359.011719 C 185.957031 347.402344 231.203125 311.183594 257.152344 257.789062 L 257.367188 257.316406 C 270.6875 256.148438 281.019531 244.296875 280.34375 230.128906 C 279.640625 215.960938 268.160156 204.597656 254.164062 204.597656 L 253.230469 204.597656 C 238.777344 205.070312 227.511719 217.371094 227.96875 232.015625 C 228.429688 239.433594 231.433594 245.476562 235.542969 249.878906 C 219.480469 281.464844 195.371094 304.667969 158.84375 324.1875 C 134.273438 337.175781 108.324219 342.066406 83.066406 338.585938 C 61.945312 335.578125 45.421875 326.027344 35.304688 310.722656 C 20.160156 287.492188 18.78125 262.4375 31.398438 237.367188 C 40.609375 219.253906 54.371094 206.023438 63.570312 199.503906 C 61.269531 193.480469 58.511719 183.265625 57.132812 175.613281 C -10.875 224.820312 -3.964844 292.136719 16.699219 323.957031 Z M 16.699219 323.957031 " fill-opacity="1" fill-rule="nonzero"/><path fill="#6c4eb0" d="M 362.070312 313.714844 C 375.832031 285.851562 374.699219 238.960938 339.554688 198.785156 L 339.339844 199.246094 C 303.765625 156.984375 251.390625 133.769531 191.660156 133.769531 L 183.84375 133.769531 C 179.964844 125.179688 171.015625 119.828125 160.898438 119.828125 L 160.207031 119.828125 C 145.753906 119.828125 134.488281 132.386719 134.964844 147 C 135.425781 160.925781 147.132812 172.546875 161.144531 172.546875 L 162.277344 172.546875 C 172.625 172.089844 181.574219 165.570312 185.238281 156.292969 L 193.746094 156.292969 C 229.136719 156.292969 262.640625 166.738281 293.203125 187.160156 C 316.609375 202.726562 333.390625 223.152344 342.804688 247.53125 C 351.050781 267.496094 350.605469 287 342.113281 303.269531 C 329.023438 328.800781 306.96875 342.28125 277.816406 342.28125 C 259.4375 342.28125 241.535156 336.46875 232.339844 332.296875 C 226.835938 336.914062 217.640625 344.582031 210.972656 349.242188 C 231.175781 358.503906 251.621094 363.855469 271.363281 363.855469 C 316.148438 363.855469 349.425781 338.339844 362.070312 313.714844 Z M 362.070312 313.714844 " fill-opacity="1" fill-rule="nonzero"/></svg>