<svg xmlns="http://www.w3.org/2000/svg" xmlns:xlink="http://www.w3.org/1999/xlink" width="500"
    zoomAndPan="magnify" viewBox="0 0 375 374.999991" height="500"
    preserveAspectRatio="xMidYMid meet" version="1.0">
    <defs>
        <clipPath id="ee68f1eb27">
            <path
                d="M 12.417969 81.796875 L 362.667969 81.796875 L 362.667969 293.296875 L 12.417969 293.296875 Z M 12.417969 81.796875 "
                clip-rule="nonzero" />
        </clipPath>
    </defs>
    <g clip-path="url(#ee68f1eb27)">
        <path fill="#ffffff"
            d="M 95.0625 136.988281 L 161.125 136.988281 L 161.125 142.242188 L 101.117188 142.242188 L 101.117188 181.761719 L 157.546875 181.761719 L 157.546875 187.019531 L 101.117188 187.019531 L 101.117188 230.410156 L 161.808594 230.410156 L 161.808594 235.664062 L 95.0625 235.664062 Z M 167.042969 136.988281 L 174.0625 136.988281 L 205.167969 180.382812 L 236.957031 136.988281 L 280.195312 81.871094 L 209.15625 184.945312 L 245.765625 235.664062 L 238.46875 235.664062 L 205.167969 189.5 L 171.722656 235.664062 L 164.566406 235.664062 L 201.445312 184.945312 Z M 248.378906 142.242188 L 248.378906 136.988281 L 323.664062 136.988281 L 323.664062 142.242188 L 288.980469 142.242188 L 288.980469 235.664062 L 282.925781 235.664062 L 282.925781 142.242188 L 248.378906 142.238281 Z M 12.417969 136.988281 L 19.988281 136.988281 L 124.367188 293.207031 L 81.234375 235.664062 L 18.753906 144.453125 L 18.476562 235.664062 L 12.421875 235.664062 L 12.421875 136.988281 Z M 323.046875 228.832031 C 321.816406 228.832031 320.886719 227.867188 320.886719 226.628906 C 320.886719 225.390625 321.816406 224.429688 323.046875 224.429688 C 324.300781 224.429688 325.214844 225.390625 325.214844 226.628906 C 325.214844 227.867188 324.300781 228.832031 323.046875 228.832031 Z M 329 223.042969 L 332.242188 223.042969 C 332.28125 224.800781 333.570312 225.976562 335.449219 225.976562 C 337.558594 225.976562 338.746094 224.710938 338.746094 222.335938 L 338.746094 207.292969 L 342.050781 207.292969 L 342.050781 222.351562 C 342.050781 226.628906 339.574219 229.089844 335.484375 229.089844 C 331.640625 229.089844 329 226.703125 329 223.042969 Z M 346.367188 222.851562 L 349.636719 222.851562 C 349.910156 224.875 351.886719 226.15625 354.734375 226.15625 C 357.382812 226.15625 359.324219 224.785156 359.324219 222.898438 C 359.324219 221.277344 358.085938 220.296875 355.273438 219.636719 L 352.539062 218.972656 C 348.695312 218.074219 346.941406 216.214844 346.941406 213.085938 C 346.941406 209.296875 350.035156 206.777344 354.671875 206.777344 C 358.988281 206.777344 362.136719 209.296875 362.328125 212.882812 L 359.117188 212.882812 C 358.8125 210.917969 357.101562 209.691406 354.625 209.691406 C 352.019531 209.691406 350.28125 210.953125 350.28125 212.867188 C 350.28125 214.386719 351.402344 215.257812 354.171875 215.90625 L 356.511719 216.480469 C 360.871094 217.5 362.667969 219.273438 362.667969 222.46875 C 362.667969 226.539062 359.515625 229.089844 354.480469 229.089844 C 349.765625 229.089844 346.601562 226.660156 346.367188 222.851562 Z M 346.367188 222.851562 "
            fill-opacity="1" fill-rule="nonzero" />
    </g>
</svg>