<svg width="16" height="16" viewBox="0 0 16 16" fill="none" xmlns="http://www.w3.org/2000/svg">
<path d="M9.78809 3.32741L12.7748 8.72085L3.96777 8.36191L6.87315 3.32741V0.621094L9.78809 0.621094V3.32741Z" fill="#6366F1"/>
<path d="M10.0407 0L6.5823 0C6.43275 0 6.31152 0.110723 6.31152 0.247306V0.372862C6.31152 0.509446 6.43275 0.620168 6.5823 0.620168L10.0407 0.620168C10.1902 0.620168 10.3115 0.509446 10.3115 0.372862V0.247306C10.3115 0.110723 10.1902 0 10.0407 0Z" fill="#6366F1"/>
<path d="M13.5256 11.4061C13.5256 11.3324 13.537 11.2588 13.537 11.1851C13.5378 10.0213 13.071 8.89667 12.2229 8.01921C11.3749 7.14175 10.203 6.57087 8.92414 6.41217C7.64523 6.25348 6.34585 6.51772 5.26638 7.156C4.18691 7.79429 3.4004 8.76342 3.05236 9.88411C2.2169 9.96121 1.44266 10.3144 0.878875 10.8755C0.315093 11.4367 0.0016793 12.1661 -0.00095976 12.9232C-0.00359882 13.6803 0.304727 14.4114 0.864585 14.9758C1.42444 15.5401 2.1962 15.8976 3.03112 15.9795V15.9986H13.4912C14.1567 15.9888 14.7915 15.7447 15.2601 15.3186C15.7287 14.8925 15.9938 14.3181 15.9989 13.7182C16.0041 13.1182 15.7487 12.5402 15.2875 12.1076C14.8263 11.6751 14.1957 11.4222 13.5305 11.4032L13.5256 11.4061Z" fill="#3730A3"/>
<path d="M11.4027 13.7714L7.99079 9.24609L4.57715 13.7714H5.91046V15.9995H10.0711V13.7714H11.4027Z" fill="#EEF2FF"/>
</svg>
